ply
format ascii 1.0
element vertex 1900
property float x
property float y
property float z
property uchar red
property uchar green
property uchar blue
end_header
2 0 0.000 120 125 130
3 0 0.000 237 174 73
5 0 0.000 0 121 140
7 0 0.000 102 161 130
11 0 0.000 237 174 73
13 0 0.000 0 121 140
1 1 0.000 214 40 60
3 1 0.000 237 174 73
7 1 0.000 102 161 130
13 1 0.000 0 121 140
15 1 0.000 102 161 130
5 2 0.000 0 121 140
9 2 0.000 214 40 60
11 2 0.000 237 174 73
15 2 0.000 102 161 130
5 3 0.000 0 121 140
11 3 0.000 237 174 73
13 3 0.000 0 121 140
3 4 0.000 237 174 73
7 4 0.000 102 161 130
9 4 0.000 214 40 60
15 4 0.000 102 161 130
3 5 0.000 237 174 73
9 5 0.000 214 40 60
1 6 0.000 214 40 60
5 6 0.000 0 121 140
7 6 0.000 102 161 130
11 6 0.000 237 174 73
13 6 0.000 0 121 140
1 7 0.000 214 40 60
15 7 0.000 102 161 130
3 8 0.000 237 174 73
9 8 0.000 214 40 60
11 8 0.000 237 174 73
5 9 0.000 0 121 140
7 9 0.000 102 161 130
13 9 0.000 0 121 140
3 10 0.000 237 174 73
7 10 0.000 102 161 130
13 10 0.000 0 121 140
3 11 0.000 237 174 73
5 11 0.000 0 121 140
15 11 0.000 102 161 130
1 12 0.000 214 40 60
5 12 0.000 0 121 140
7 12 0.000 102 161 130
3 13 0.000 237 174 73
15 13 0.000 102 161 130
3 14 0.000 237 174 73
5 14 0.000 0 121 140
9 14 0.000 214 40 60
15 14 0.000 102 161 130
1 15 0.000 214 40 60
11 15 0.000 237 174 73
1 0 0.500 214 40 60
7 0 0.500 102 161 130
13 0 0.500 0 121 140
15 0 0.500 102 161 130
5 1 0.500 0 121 140
9 1 0.500 214 40 60
11 1 0.500 237 174 73
5 2 0.500 0 121 140
3 3 0.500 237 174 73
7 3 0.500 102 161 130
9 3 0.500 214 40 60
13 3 0.500 0 121 140
11 4 0.500 237 174 73
1 5 0.500 214 40 60
11 5 0.500 237 174 73
13 5 0.500 0 121 140
1 6 0.500 214 40 60
7 6 0.500 102 161 130
15 6 0.500 102 161 130
5 7 0.500 0 121 140
11 7 0.500 237 174 73
15 7 0.500 102 161 130
5 8 0.500 0 121 140
13 8 0.500 0 121 140
1 9 0.500 214 40 60
9 9 0.500 214 40 60
3 10 0.500 237 174 73
5 10 0.500 0 121 140
15 10 0.500 102 161 130
1 11 0.500 214 40 60
7 11 0.500 102 161 130
11 11 0.500 237 174 73
1 12 0.500 214 40 60
9 12 0.500 214 40 60
13 12 0.500 0 121 140
15 12 0.500 102 161 130
3 13 0.500 237 174 73
15 13 0.500 102 161 130
7 14 0.500 102 161 130
11 14 0.500 237 174 73
3 15 0.500 237 174 73
7 15 0.500 102 161 130
13 15 0.500 0 121 140
9 0 1.000 214 40 60
11 0 1.000 237 174 73
13 1 1.000 0 121 140
3 2 1.000 237 174 73
13 2 1.000 0 121 140
3 3 1.000 237 174 73
9 3 1.000 214 40 60
11 3 1.000 237 174 73
1 4 1.000 214 40 60
11 4 1.000 237 174 73
1 5 1.000 214 40 60
7 5 1.000 102 161 130
9 5 1.000 214 40 60
15 5 1.000 102 161 130
5 6 1.000 0 121 140
9 6 1.000 214 40 60
11 6 1.000 237 174 73
7 7 1.000 102 161 130
1 8 1.000 214 40 60
3 8 1.000 237 174 73
7 8 1.000 102 161 130
13 8 1.000 0 121 140
3 9 1.000 237 174 73
5 9 1.000 0 121 140
1 10 1.000 214 40 60
5 10 1.000 0 121 140
11 10 1.000 237 174 73
3 11 1.000 237 174 73
13 11 1.000 0 121 140
5 12 1.000 0 121 140
15 12 1.000 102 161 130
7 13 1.000 102 161 130
13 13 1.000 0 121 140
3 14 1.000 237 174 73
7 14 1.000 102 161 130
15 14 1.000 102 161 130
5 15 1.000 0 121 140
9 15 1.000 214 40 60
1 0 1.500 214 40 60
5 0 1.500 0 121 140
3 1 1.500 237 174 73
13 1 1.500 0 121 140
9 2 1.500 214 40 60
11 2 1.500 237 174 73
5 3 1.500 0 121 140
7 3 1.500 102 161 130
11 3 1.500 237 174 73
13 3 1.500 0 121 140
7 4 1.500 102 161 130
5 5 1.500 0 121 140
9 5 1.500 214 40 60
11 5 1.500 237 174 73
15 5 1.500 102 161 130
13 6 1.500 0 121 140
1 7 1.500 214 40 60
3 7 1.500 237 174 73
7 7 1.500 102 161 130
11 8 1.500 237 174 73
15 8 1.500 102 161 130
7 9 1.500 102 161 130
1 10 1.500 214 40 60
9 10 1.500 214 40 60
13 10 1.500 0 121 140
3 11 1.500 237 174 73
9 11 1.500 214 40 60
7 12 1.500 102 161 130
11 12 1.500 237 174 73
1 13 1.500 214 40 60
7 13 1.500 102 161 130
15 13 1.500 102 161 130
5 14 1.500 0 121 140
1 15 1.500 214 40 60
5 15 1.500 0 121 140
11 15 1.500 237 174 73
13 15 1.500 0 121 140
7 0 2.000 102 161 130
9 0 2.000 214 40 60
15 0 2.000 102 161 130
9 1 2.000 214 40 60
11 1 2.000 237 174 73
5 2 2.000 0 121 140
7 2 2.000 102 161 130
13 2 2.000 0 121 140
15 3 2.000 102 161 130
3 4 2.000 237 174 73
5 4 2.000 0 121 140
9 4 2.000 214 40 60
15 4 2.000 102 161 130
5 5 2.000 0 121 140
13 5 2.000 0 121 140
3 6 2.000 237 174 73
9 6 2.000 214 40 60
15 7 2.000 102 161 130
1 8 2.000 214 40 60
11 8 2.000 237 174 73
3 9 2.000 237 174 73
13 9 2.000 0 121 140
3 10 2.000 237 174 73
9 10 2.000 214 40 60
1 11 2.000 214 40 60
13 11 2.000 0 121 140
1 12 2.000 214 40 60
7 12 2.000 102 161 130
13 12 2.000 0 121 140
15 12 2.000 102 161 130
5 13 2.000 0 121 140
1 14 2.000 214 40 60
11 14 2.000 237 174 73
13 15 2.000 0 121 140
15 15 2.000 102 161 130
3 0 2.500 237 174 73
9 0 2.500 214 40 60
11 0 2.500 237 174 73
1 1 2.500 214 40 60
5 1 2.500 0 121 140
7 1 2.500 102 161 130
11 1 2.500 237 174 73
7 2 2.500 102 161 130
9 2 2.500 214 40 60
15 2 2.500 102 161 130
1 5 2.500 214 40 60
7 5 2.500 102 161 130
13 5 2.500 0 121 140
5 6 2.500 0 121 140
7 7 2.500 102 161 130
1 8 2.500 214 40 60
15 8 2.500 102 161 130
3 9 2.500 237 174 73
5 9 2.500 0 121 140
9 9 2.500 214 40 60
15 9 2.500 102 161 130
7 10 2.500 102 161 130
11 10 2.500 237 174 73
13 10 2.500 0 121 140
3 11 2.500 237 174 73
15 11 2.500 102 161 130
9 12 2.500 214 40 60
11 12 2.500 237 174 73
15 12 2.500 102 161 130
1 13 2.500 214 40 60
5 13 2.500 0 121 140
11 13 2.500 237 174 73
7 14 2.500 102 161 130
3 15 2.500 237 174 73
11 15 2.500 237 174 73
7 0 3.000 102 161 130
13 0 3.000 0 121 140
1 1 3.000 214 40 60
7 1 3.000 102 161 130
15 1 3.000 102 161 130
3 2 3.000 237 174 73
11 2 3.000 237 174 73
15 2 3.000 102 161 130
13 3 3.000 0 121 140
1 4 3.000 214 40 60
7 4 3.000 102 161 130
9 4 3.000 214 40 60
13 4 3.000 0 121 140
3 5 3.000 237 174 73
5 5 3.000 0 121 140
11 5 3.000 237 174 73
5 6 3.000 0 121 140
9 7 3.000 214 40 60
15 7 3.000 102 161 130
3 8 3.000 237 174 73
5 8 3.000 0 121 140
13 9 3.000 0 121 140
1 10 3.000 214 40 60
3 10 3.000 237 174 73
13 10 3.000 0 121 140
9 11 3.000 214 40 60
11 11 3.000 237 174 73
5 12 3.000 0 121 140
13 12 3.000 0 121 140
3 13 3.000 237 174 73
9 13 3.000 214 40 60
15 13 3.000 102 161 130
1 15 3.000 214 40 60
7 15 3.000 102 161 130
11 15 3.000 237 174 73
13 15 3.000 0 121 140
9 0 3.500 214 40 60
3 1 3.500 237 174 73
15 1 3.500 102 161 130
7 2 3.500 102 161 130
7 3 3.500 102 161 130
5 4 3.500 0 121 140
11 4 3.500 237 174 73
15 4 3.500 102 161 130
1 5 3.500 214 40 60
5 5 3.500 0 121 140
7 5 3.500 102 161 130
1 6 3.500 214 40 60
13 6 3.500 0 121 140
3 7 3.500 237 174 73
9 7 3.500 214 40 60
11 8 3.500 237 174 73
13 8 3.500 0 121 140
13 9 3.500 0 121 140
15 9 3.500 102 161 130
5 11 3.500 0 121 140
11 11 3.500 237 174 73
3 12 3.500 237 174 73
9 12 3.500 214 40 60
13 12 3.500 0 121 140
15 12 3.500 102 161 130
3 13 3.500 237 174 73
11 13 3.500 237 174 73
1 14 3.500 214 40 60
11 14 3.500 237 174 73
13 14 3.500 0 121 140
7 15 3.500 102 161 130
5 0 4.000 0 121 140
15 0 4.000 102 161 130
5 1 4.000 0 121 140
1 2 4.000 214 40 60
3 2 4.000 237 174 73
7 2 4.000 102 161 130
9 2 4.000 214 40 60
3 3 4.000 237 174 73
15 3 4.000 102 161 130
1 4 4.000 214 40 60
1 5 4.000 214 40 60
3 5 4.000 237 174 73
9 5 4.000 214 40 60
13 5 4.000 0 121 140
15 5 4.000 102 161 130
9 6 4.000 214 40 60
1 7 4.000 214 40 60
3 8 4.000 237 174 73
11 9 4.000 237 174 73
15 9 4.000 102 161 130
5 10 4.000 0 121 140
13 10 4.000 0 121 140
13 11 4.000 0 121 140
15 11 4.000 102 161 130
3 12 4.000 237 174 73
11 12 4.000 237 174 73
11 13 4.000 237 174 73
13 13 4.000 0 121 140
1 14 4.000 214 40 60
9 14 4.000 214 40 60
15 14 4.000 102 161 130
5 15 4.000 0 121 140
9 15 4.000 214 40 60
5 0 4.500 0 121 140
7 0 4.500 102 161 130
13 1 4.500 0 121 140
3 2 4.500 237 174 73
5 2 4.500 0 121 140
11 2 4.500 237 174 73
15 2 4.500 102 161 130
5 3 4.500 0 121 140
3 4 4.500 237 174 73
9 4 4.500 214 40 60
13 4 4.500 0 121 140
15 4 4.500 102 161 130
5 5 4.500 0 121 140
9 5 4.500 214 40 60
15 5 4.500 102 161 130
11 6 4.500 237 174 73
1 7 4.500 214 40 60
7 7 4.500 102 161 130
5 8 4.500 0 121 140
9 8 4.500 214 40 60
15 8 4.500 102 161 130
11 9 4.500 237 174 73
3 10 4.500 237 174 73
9 10 4.500 214 40 60
13 10 4.500 0 121 140
7 12 4.500 102 161 130
9 13 4.500 214 40 60
3 14 4.500 237 174 73
11 14 4.500 237 174 73
15 14 4.500 102 161 130
5 15 4.500 0 121 140
7 15 4.500 102 161 130
13 15 4.500 0 121 140
3 1 5.000 237 174 73
15 1 5.000 102 161 130
1 2 5.000 214 40 60
1 3 5.000 214 40 60
9 3 5.000 214 40 60
13 3 5.000 0 121 140
9 4 5.000 214 40 60
7 5 5.000 102 161 130
1 6 5.000 214 40 60
3 6 5.000 237 174 73
7 6 5.000 102 161 130
15 6 5.000 102 161 130
5 7 5.000 0 121 140
11 7 5.000 237 174 73
15 7 5.000 102 161 130
1 8 5.000 214 40 60
5 8 5.000 0 121 140
11 8 5.000 237 174 73
3 9 5.000 237 174 73
7 9 5.000 102 161 130
9 9 5.000 214 40 60
15 9 5.000 102 161 130
9 10 5.000 214 40 60
11 10 5.000 237 174 73
5 11 5.000 0 121 140
13 11 5.000 0 121 140
1 12 5.000 214 40 60
15 12 5.000 102 161 130
9 13 5.000 214 40 60
5 14 5.000 0 121 140
7 14 5.000 102 161 130
13 14 5.000 0 121 140
1 15 5.000 214 40 60
3 15 5.000 237 174 73
3 0 5.500 237 174 73
1 1 5.500 214 40 60
5 1 5.500 0 121 140
11 1 5.500 237 174 73
3 2 5.500 237 174 73
9 2 5.500 214 40 60
13 2 5.500 0 121 140
15 3 5.500 102 161 130
7 4 5.500 102 161 130
1 5 5.500 214 40 60
7 5 5.500 102 161 130
13 5 5.500 0 121 140
5 6 5.500 0 121 140
15 6 5.500 102 161 130
11 7 5.500 237 174 73
9 8 5.500 214 40 60
13 8 5.500 0 121 140
3 9 5.500 237 174 73
9 9 5.500 214 40 60
11 9 5.500 237 174 73
7 11 5.500 102 161 130
9 11 5.500 214 40 60
3 12 5.500 237 174 73
11 12 5.500 237 174 73
15 12 5.500 102 161 130
13 13 5.500 0 121 140
1 14 5.500 214 40 60
9 14 5.500 214 40 60
5 15 5.500 0 121 140
11 15 5.500 237 174 73
7 0 6.000 102 161 130
11 0 6.000 237 174 73
1 1 6.000 214 40 60
5 2 6.000 0 121 140
15 2 6.000 102 161 130
1 3 6.000 214 40 60
1 4 6.000 214 40 60
11 5 6.000 237 174 73
15 5 6.000 102 161 130
1 6 6.000 214 40 60
13 6 6.000 0 121 140
3 7 6.000 237 174 73
7 7 6.000 102 161 130
3 8 6.000 237 174 73
9 8 6.000 214 40 60
1 9 6.000 214 40 60
5 9 6.000 0 121 140
13 9 6.000 0 121 140
3 11 6.000 237 174 73
5 11 6.000 0 121 140
9 11 6.000 214 40 60
11 11 6.000 237 174 73
7 12 6.000 102 161 130
3 14 6.000 237 174 73
5 14 6.000 0 121 140
11 14 6.000 237 174 73
1 15 6.000 214 40 60
7 15 6.000 102 161 130
11 15 6.000 237 174 73
1 0 6.500 214 40 60
3 0 6.500 237 174 73
15 0 6.500 102 161 130
3 1 6.500 237 174 73
15 1 6.500 102 161 130
1 2 6.500 214 40 60
11 2 6.500 237 174 73
13 2 6.500 0 121 140
13 3 6.500 0 121 140
15 3 6.500 102 161 130
15 4 6.500 102 161 130
5 5 6.500 0 121 140
9 6 6.500 214 40 60
9 7 6.500 214 40 60
1 8 6.500 214 40 60
5 8 6.500 0 121 140
7 8 6.500 102 161 130
11 8 6.500 237 174 73
13 8 6.500 0 121 140
3 10 6.500 237 174 73
11 10 6.500 237 174 73
7 11 6.500 102 161 130
13 11 6.500 0 121 140
7 12 6.500 102 161 130
9 12 6.500 214 40 60
13 12 6.500 0 121 140
3 13 6.500 237 174 73
5 13 6.500 0 121 140
11 13 6.500 237 174 73
5 14 6.500 0 121 140
7 14 6.500 102 161 130
3 15 6.500 237 174 73
13 15 6.500 0 121 140
15 15 6.500 102 161 130
9 0 7.000 214 40 60
7 1 7.000 102 161 130
13 1 7.000 0 121 140
1 2 7.000 214 40 60
7 2 7.000 102 161 130
15 2 7.000 102 161 130
5 3 7.000 0 121 140
11 3 7.000 237 174 73
11 4 7.000 237 174 73
7 5 7.000 102 161 130
9 5 7.000 214 40 60
13 5 7.000 0 121 140
11 6 7.000 237 174 73
1 7 7.000 214 40 60
5 7 7.000 0 121 140
13 7 7.000 0 121 140
7 8 7.000 102 161 130
15 8 7.000 102 161 130
5 9 7.000 0 121 140
11 9 7.000 237 174 73
1 11 7.000 214 40 60
7 11 7.000 102 161 130
9 11 7.000 214 40 60
3 12 7.000 237 174 73
1 13 7.000 214 40 60
5 13 7.000 0 121 140
11 13 7.000 237 174 73
13 14 7.000 0 121 140
15 14 7.000 102 161 130
9 15 7.000 214 40 60
7 0 7.500 102 161 130
11 0 7.500 237 174 73
13 0 7.500 0 121 140
7 1 7.500 102 161 130
5 2 7.500 0 121 140
9 2 7.500 214 40 60
1 3 7.500 214 40 60
3 4 7.500 237 174 73
7 4 7.500 102 161 130
13 4 7.500 0 121 140
15 4 7.500 102 161 130
3 5 7.500 237 174 73
9 5 7.500 214 40 60
11 5 7.500 237 174 73
7 6 7.500 102 161 130
11 6 7.500 237 174 73
15 7 7.500 102 161 130
5 9 7.500 0 121 140
1 10 7.500 214 40 60
3 10 7.500 237 174 73
7 10 7.500 102 161 130
13 10 7.500 0 121 140
3 11 7.500 237 174 73
5 11 7.500 0 121 140
11 11 7.500 237 174 73
1 13 7.500 214 40 60
3 13 7.500 237 174 73
9 13 7.500 214 40 60
9 14 7.500 214 40 60
15 14 7.500 102 161 130
11 15 7.500 237 174 73
13 15 7.500 0 121 140
3 0 8.000 237 174 73
15 0 8.000 102 161 130
15 1 8.000 102 161 130
1 2 8.000 214 40 60
5 2 8.000 0 121 140
11 2 8.000 237 174 73
9 3 8.000 214 40 60
13 3 8.000 0 121 140
15 3 8.000 102 161 130
1 5 8.000 214 40 60
9 6 8.000 214 40 60
3 7 8.000 237 174 73
9 7 8.000 214 40 60
11 7 8.000 237 174 73
5 8 8.000 0 121 140
7 8 8.000 102 161 130
1 9 8.000 214 40 60
3 9 8.000 237 174 73
13 9 8.000 0 121 140
3 10 8.000 237 174 73
5 10 8.000 0 121 140
15 10 8.000 102 161 130
1 11 8.000 214 40 60
11 11 8.000 237 174 73
1 12 8.000 214 40 60
9 12 8.000 214 40 60
7 14 8.000 102 161 130
1 15 8.000 214 40 60
3 15 8.000 237 174 73
13 15 8.000 0 121 140
5 0 8.500 0 121 140
11 0 8.500 237 174 73
5 1 8.500 0 121 140
7 2 8.500 102 161 130
13 2 8.500 0 121 140
9 3 8.500 214 40 60
5 4 8.500 0 121 140
7 4 8.500 102 161 130
9 5 8.500 214 40 60
15 5 8.500 102 161 130
3 6 8.500 237 174 73
9 6 8.500 214 40 60
15 6 8.500 102 161 130
1 8 8.500 214 40 60
3 8 8.500 237 174 73
13 8 8.500 0 121 140
11 9 8.500 237 174 73
1 10 8.500 214 40 60
5 10 8.500 0 121 140
7 10 8.500 102 161 130
11 10 8.500 237 174 73
3 12 8.500 237 174 73
5 12 8.500 0 121 140
1 13 8.500 214 40 60
7 13 8.500 102 161 130
7 14 8.500 102 161 130
15 14 8.500 102 161 130
5 15 8.500 0 121 140
11 15 8.500 237 174 73
13 0 9.000 0 121 140
13 1 9.000 0 121 140
15 1 9.000 102 161 130
3 2 9.000 237 174 73
9 2 9.000 214 40 60
11 2 9.000 237 174 73
1 3 9.000 214 40 60
7 3 9.000 102 161 130
1 4 9.000 214 40 60
7 4 9.000 102 161 130
3 5 9.000 237 174 73
15 5 9.000 102 161 130
1 7 9.000 214 40 60
3 7 9.000 237 174 73
9 7 9.000 214 40 60
13 7 9.000 0 121 140
15 8 9.000 102 161 130
7 9 9.000 102 161 130
15 10 9.000 102 161 130
3 11 9.000 237 174 73
5 11 9.000 0 121 140
9 11 9.000 214 40 60
15 11 9.000 102 161 130
1 12 9.000 214 40 60
13 12 9.000 0 121 140
1 13 9.000 214 40 60
15 13 9.000 102 161 130
13 15 9.000 0 121 140
7 0 9.500 102 161 130
13 0 9.500 0 121 140
9 1 9.500 214 40 60
7 2 9.500 102 161 130
13 2 9.500 0 121 140
7 3 9.500 102 161 130
3 4 9.500 237 174 73
5 4 9.500 0 121 140
9 4 9.500 214 40 60
15 4 9.500 102 161 130
7 5 9.500 102 161 130
13 5 9.500 0 121 140
7 6 9.500 102 161 130
9 6 9.500 214 40 60
13 6 9.500 0 121 140
11 7 9.500 237 174 73
1 8 9.500 214 40 60
7 8 9.500 102 161 130
11 8 9.500 237 174 73
1 9 9.500 214 40 60
3 9 9.500 237 174 73
13 9 9.500 0 121 140
15 9 9.500 102 161 130
15 10 9.500 102 161 130
11 11 9.500 237 174 73
3 12 9.500 237 174 73
5 13 9.500 0 121 140
9 13 9.500 214 40 60
15 13 9.500 102 161 130
11 14 9.500 237 174 73
13 14 9.500 0 121 140
3 15 9.500 237 174 73
9 15 9.500 214 40 60
15 15 9.500 102 161 130
11 1 10.000 237 174 73
1 2 10.000 214 40 60
15 2 10.000 102 161 130
3 3 10.000 237 174 73
11 3 10.000 237 174 73
5 4 10.000 0 121 140
13 4 10.000 0 121 140
9 5 10.000 214 40 60
11 6 10.000 237 174 73
15 6 10.000 102 161 130
1 7 10.000 214 40 60
5 7 10.000 0 121 140
13 8 10.000 0 121 140
9 9 10.000 214 40 60
15 9 10.000 102 161 130
1 10 10.000 214 40 60
1 11 10.000 214 40 60
7 11 10.000 102 161 130
13 11 10.000 0 121 140
11 12 10.000 237 174 73
5 13 10.000 0 121 140
3 14 10.000 237 174 73
7 14 10.000 102 161 130
5 0 10.500 0 121 140
11 0 10.500 237 174 73
1 1 10.500 214 40 60
7 1 10.500 102 161 130
15 1 10.500 102 161 130
5 2 10.500 0 121 140
9 2 10.500 214 40 60
11 2 10.500 237 174 73
7 3 10.500 102 161 130
13 3 10.500 0 121 140
1 4 10.500 214 40 60
3 4 10.500 237 174 73
9 4 10.500 214 40 60
15 5 10.500 102 161 130
5 6 10.500 0 121 140
7 6 10.500 102 161 130
11 6 10.500 237 174 73
13 7 10.500 0 121 140
15 7 10.500 102 161 130
3 8 10.500 237 174 73
15 8 10.500 102 161 130
1 9 10.500 214 40 60
7 9 10.500 102 161 130
11 9 10.500 237 174 73
5 11 10.500 0 121 140
11 11 10.500 237 174 73
1 12 10.500 214 40 60
5 12 10.500 0 121 140
13 12 10.500 0 121 140
7 13 10.500 102 161 130
7 15 10.500 102 161 130
7 0 11.000 102 161 130
9 0 11.000 214 40 60
15 0 11.000 102 161 130
3 1 11.000 237 174 73
5 1 11.000 0 121 140
9 1 11.000 214 40 60
11 1 11.000 237 174 73
5 2 11.000 0 121 140
3 3 11.000 237 174 73
9 3 11.000 214 40 60
13 3 11.000 0 121 140
5 4 11.000 0 121 140
15 4 11.000 102 161 130
5 5 11.000 0 121 140
9 6 11.000 214 40 60
13 6 11.000 0 121 140
15 6 11.000 102 161 130
5 7 11.000 0 121 140
3 9 11.000 237 174 73
7 9 11.000 102 161 130
15 9 11.000 102 161 130
9 10 11.000 214 40 60
15 10 11.000 102 161 130
5 11 11.000 0 121 140
13 11 11.000 0 121 140
3 12 11.000 237 174 73
15 12 11.000 102 161 130
3 13 11.000 237 174 73
9 13 11.000 214 40 60
11 13 11.000 237 174 73
1 14 11.000 214 40 60
5 14 11.000 0 121 140
11 14 11.000 237 174 73
13 14 11.000 0 121 140
7 15 11.000 102 161 130
9 15 11.000 214 40 60
9 0 11.500 214 40 60
15 0 11.500 102 161 130
3 2 11.500 237 174 73
7 2 11.500 102 161 130
3 3 11.500 237 174 73
1 4 11.500 214 40 60
13 5 11.500 0 121 140
3 6 11.500 237 174 73
7 7 11.500 102 161 130
11 7 11.500 237 174 73
13 8 11.500 0 121 140
5 9 11.500 0 121 140
11 9 11.500 237 174 73
15 9 11.500 102 161 130
5 10 11.500 0 121 140
3 11 11.500 237 174 73
9 11 11.500 214 40 60
15 11 11.500 102 161 130
9 12 11.500 214 40 60
11 12 11.500 237 174 73
5 13 11.500 0 121 140
1 14 11.500 214 40 60
9 14 11.500 214 40 60
3 15 11.500 237 174 73
5 15 11.500 0 121 140
15 15 11.500 102 161 130
7 0 12.000 102 161 130
3 1 12.000 237 174 73
13 1 12.000 0 121 140
5 3 12.000 0 121 140
7 3 12.000 102 161 130
11 3 12.000 237 174 73
3 4 12.000 237 174 73
9 4 12.000 214 40 60
13 4 12.000 0 121 140
5 5 12.000 0 121 140
7 6 12.000 102 161 130
1 7 12.000 214 40 60
7 7 12.000 102 161 130
13 7 12.000 0 121 140
15 7 12.000 102 161 130
5 8 12.000 0 121 140
15 8 12.000 102 161 130
11 9 12.000 237 174 73
13 9 12.000 0 121 140
7 10 12.000 102 161 130
13 10 12.000 0 121 140
3 11 12.000 237 174 73
9 11 12.000 214 40 60
1 12 12.000 214 40 60
7 12 12.000 102 161 130
1 13 12.000 214 40 60
7 13 12.000 102 161 130
9 13 12.000 214 40 60
15 13 12.000 102 161 130
5 14 12.000 0 121 140
11 14 12.000 237 174 73
5 15 12.000 0 121 140
13 15 12.000 0 121 140
5 1 12.500 0 121 140
11 1 12.500 237 174 73
1 3 12.500 214 40 60
3 3 12.500 237 174 73
5 4 12.500 0 121 140
9 4 12.500 214 40 60
1 5 12.500 214 40 60
11 5 12.500 237 174 73
9 7 12.500 214 40 60
1 8 12.500 214 40 60
3 9 12.500 237 174 73
7 9 12.500 102 161 130
9 9 12.500 214 40 60
3 10 12.500 237 174 73
9 10 12.500 214 40 60
11 10 12.500 237 174 73
1 11 12.500 214 40 60
5 11 12.500 0 121 140
7 12 12.500 102 161 130
15 12 12.500 102 161 130
11 13 12.500 237 174 73
13 14 12.500 0 121 140
13 15 12.500 0 121 140
3 0 13.000 237 174 73
5 0 13.000 0 121 140
1 1 13.000 214 40 60
7 1 13.000 102 161 130
1 2 13.000 214 40 60
3 2 13.000 237 174 73
13 2 13.000 0 121 140
15 2 13.000 102 161 130
5 3 13.000 0 121 140
15 3 13.000 102 161 130
13 4 13.000 0 121 140
1 5 13.000 214 40 60
9 6 13.000 214 40 60
11 6 13.000 237 174 73
11 7 13.000 237 174 73
13 7 13.000 0 121 140
7 8 13.000 102 161 130
9 8 13.000 214 40 60
3 9 13.000 237 174 73
7 10 13.000 102 161 130
11 10 13.000 237 174 73
13 10 13.000 0 121 140
1 11 13.000 214 40 60
9 11 13.000 214 40 60
9 12 13.000 214 40 60
15 12 13.000 102 161 130
5 13 13.000 0 121 140
7 13 13.000 102 161 130
3 14 13.000 237 174 73
3 15 13.000 237 174 73
11 15 13.000 237 174 73
15 15 13.000 102 161 130
5 0 13.500 0 121 140
3 2 13.500 237 174 73
5 2 13.500 0 121 140
15 2 13.500 102 161 130
1 3 13.500 214 40 60
7 3 13.500 102 161 130
11 3 13.500 237 174 73
1 4 13.500 214 40 60
7 4 13.500 102 161 130
15 4 13.500 102 161 130
5 5 13.500 0 121 140
9 5 13.500 214 40 60
5 6 13.500 0 121 140
11 6 13.500 237 174 73
3 7 13.500 237 174 73
15 7 13.500 102 161 130
3 8 13.500 237 174 73
1 9 13.500 214 40 60
13 9 13.500 0 121 140
7 10 13.500 102 161 130
15 11 13.500 102 161 130
5 12 13.500 0 121 140
1 13 13.500 214 40 60
7 13 13.500 102 161 130
9 13 13.500 214 40 60
15 14 13.500 102 161 130
7 15 13.500 102 161 130
9 0 14.000 214 40 60
3 1 14.000 237 174 73
9 1 14.000 214 40 60
7 2 14.000 102 161 130
11 2 14.000 237 174 73
13 2 14.000 0 121 140
3 3 14.000 237 174 73
13 3 14.000 0 121 140
5 4 14.000 0 121 140
11 4 14.000 237 174 73
15 4 14.000 102 161 130
5 5 14.000 0 121 140
3 7 14.000 237 174 73
1 8 14.000 214 40 60
11 8 14.000 237 174 73
13 8 14.000 0 121 140
9 9 14.000 214 40 60
3 10 14.000 237 174 73
5 10 14.000 0 121 140
5 11 14.000 0 121 140
7 11 14.000 102 161 130
9 12 14.000 214 40 60
1 14 14.000 214 40 60
3 15 14.000 237 174 73
9 15 14.000 214 40 60
9 0 14.500 214 40 60
11 1 14.500 237 174 73
1 2 14.500 214 40 60
3 2 14.500 237 174 73
5 3 14.500 0 121 140
9 3 14.500 214 40 60
15 3 14.500 102 161 130
1 4 14.500 214 40 60
11 4 14.500 237 174 73
3 5 14.500 237 174 73
13 5 14.500 0 121 140
3 6 14.500 237 174 73
9 6 14.500 214 40 60
1 7 14.500 214 40 60
5 7 14.500 0 121 140
11 7 14.500 237 174 73
13 7 14.500 0 121 140
7 8 14.500 102 161 130
9 8 14.500 214 40 60
5 9 14.500 0 121 140
9 9 14.500 214 40 60
15 9 14.500 102 161 130
5 10 14.500 0 121 140
7 10 14.500 102 161 130
3 11 14.500 237 174 73
7 11 14.500 102 161 130
5 12 14.500 0 121 140
7 13 14.500 102 161 130
11 13 14.500 237 174 73
1 14 14.500 214 40 60
5 15 14.500 0 121 140
9 15 14.500 214 40 60
1 0 15.000 214 40 60
7 0 15.000 102 161 130
11 0 15.000 237 174 73
3 1 15.000 237 174 73
7 1 15.000 102 161 130
5 2 15.000 0 121 140
11 2 15.000 237 174 73
15 2 15.000 102 161 130
13 3 15.000 0 121 140
9 4 15.000 214 40 60
13 4 15.000 0 121 140
15 4 15.000 102 161 130
13 6 15.000 0 121 140
1 7 15.000 214 40 60
9 8 15.000 214 40 60
15 8 15.000 102 161 130
5 9 15.000 0 121 140
1 10 15.000 214 40 60
13 10 15.000 0 121 140
11 11 15.000 237 174 73
1 12 15.000 214 40 60
5 12 15.000 0 121 140
7 12 15.000 102 161 130
11 12 15.000 237 174 73
13 13 15.000 0 121 140
3 14 15.000 237 174 73
15 14 15.000 102 161 130
7 15 15.000 102 161 130
13 15 15.000 0 121 140
1 0 15.500 214 40 60
13 0 15.500 0 121 140
15 0 15.500 102 161 130
11 1 15.500 237 174 73
9 3 15.500 214 40 60
9 4 15.500 214 40 60
11 4 15.500 237 174 73
1 5 15.500 214 40 60
7 6 15.500 102 161 130
5 7 15.500 0 121 140
11 7 15.500 237 174 73
5 8 15.500 0 121 140
1 9 15.500 214 40 60
7 9 15.500 102 161 130
9 9 15.500 214 40 60
13 9 15.500 0 121 140
5 10 15.500 0 121 140
15 10 15.500 102 161 130
5 11 15.500 0 121 140
11 11 15.500 237 174 73
3 13 15.500 237 174 73
1 14 15.500 214 40 60
7 14 15.500 102 161 130
11 14 15.500 237 174 73
3 15 15.500 237 174 73
15 15 15.500 102 161 130
1 1 16.000 214 40 60
11 1 16.000 237 174 73
13 1 16.000 0 121 140
7 2 16.000 102 161 130
9 2 16.000 214 40 60
13 2 16.000 0 121 140
3 3 16.000 237 174 73
7 4 16.000 102 161 130
13 4 16.000 0 121 140
1 5 16.000 214 40 60
15 5 16.000 102 161 130
3 6 16.000 237 174 73
5 6 16.000 0 121 140
9 6 16.000 214 40 60
7 7 16.000 102 161 130
13 7 16.000 0 121 140
9 8 16.000 214 40 60
1 10 16.000 214 40 60
11 10 16.000 237 174 73
1 11 16.000 214 40 60
9 11 16.000 214 40 60
3 12 16.000 237 174 73
5 12 16.000 0 121 140
3 14 16.000 237 174 73
7 14 16.000 102 161 130
13 14 16.000 0 121 140
15 14 16.000 102 161 130
11 15 16.000 237 174 73
15 15 16.000 102 161 130
13 0 16.500 0 121 140
3 1 16.500 237 174 73
5 3 16.500 0 121 140
1 4 16.500 214 40 60
9 4 16.500 214 40 60
15 4 16.500 102 161 130
9 5 16.500 214 40 60
11 5 16.500 237 174 73
15 5 16.500 102 161 130
3 7 16.500 237 174 73
13 7 16.500 0 121 140
5 8 16.500 0 121 140
5 9 16.500 0 121 140
7 9 16.500 102 161 130
1 10 16.500 214 40 60
15 10 16.500 102 161 130
3 11 16.500 237 174 73
5 11 16.500 0 121 140
1 12 16.500 214 40 60
7 12 16.500 102 161 130
7 13 16.500 102 161 130
13 13 16.500 0 121 140
5 14 16.500 0 121 140
9 14 16.500 214 40 60
1 15 16.500 214 40 60
5 15 16.500 0 121 140
11 15 16.500 237 174 73
3 0 17.000 237 174 73
9 0 17.000 214 40 60
15 0 17.000 102 161 130
11 1 17.000 237 174 73
1 2 17.000 214 40 60
5 2 17.000 0 121 140
11 2 17.000 237 174 73
1 3 17.000 214 40 60
9 3 17.000 214 40 60
11 4 17.000 237 174 73
15 4 17.000 102 161 130
3 6 17.000 237 174 73
7 6 17.000 102 161 130
3 7 17.000 237 174 73
5 7 17.000 0 121 140
15 7 17.000 102 161 130
5 8 17.000 0 121 140
7 8 17.000 102 161 130
1 9 17.000 214 40 60
13 9 17.000 0 121 140
15 9 17.000 102 161 130
3 10 17.000 237 174 73
7 11 17.000 102 161 130
13 11 17.000 0 121 140
11 13 17.000 237 174 73
1 14 17.000 214 40 60
5 14 17.000 0 121 140
13 14 17.000 0 121 140
7 15 17.000 102 161 130
3 0 17.500 237 174 73
9 0 17.500 214 40 60
11 0 17.500 237 174 73
7 2 17.500 102 161 130
9 2 17.500 214 40 60
15 2 17.500 102 161 130
3 3 17.500 237 174 73
5 3 17.500 0 121 140
5 4 17.500 0 121 140
1 5 17.500 214 40 60
3 5 17.500 237 174 73
9 5 17.500 214 40 60
3 6 17.500 237 174 73
11 6 17.500 237 174 73
3 8 17.500 237 174 73
15 8 17.500 102 161 130
5 9 17.500 0 121 140
7 10 17.500 102 161 130
13 10 17.500 0 121 140
1 11 17.500 214 40 60
15 11 17.500 102 161 130
5 12 17.500 0 121 140
9 12 17.500 214 40 60
5 13 17.500 0 121 140
13 13 17.500 0 121 140
3 14 17.500 237 174 73
15 14 17.500 102 161 130
3 15 17.500 237 174 73
9 15 17.500 214 40 60
5 0 18.000 0 121 140
11 0 18.000 237 174 73
7 1 18.000 102 161 130
9 1 18.000 214 40 60
9 2 18.000 214 40 60
13 3 18.000 0 121 140
1 4 18.000 214 40 60
3 4 18.000 237 174 73
13 4 18.000 0 121 140
15 5 18.000 102 161 130
7 6 18.000 102 161 130
11 6 18.000 237 174 73
9 7 18.000 214 40 60
13 7 18.000 0 121 140
15 7 18.000 102 161 130
5 8 18.000 0 121 140
11 9 18.000 237 174 73
1 10 18.000 214 40 60
15 10 18.000 102 161 130
5 11 18.000 0 121 140
11 11 18.000 237 174 73
5 12 18.000 0 121 140
11 12 18.000 237 174 73
13 12 18.000 0 121 140
7 13 18.000 102 161 130
9 13 18.000 214 40 60
13 13 18.000 0 121 140
15 13 18.000 102 161 130
5 15 18.000 0 121 140
7 15 18.000 102 161 130
11 15 18.000 237 174 73
1 0 18.500 214 40 60
7 0 18.500 102 161 130
3 1 18.500 237 174 73
9 1 18.500 214 40 60
7 2 18.500 102 161 130
1 3 18.500 214 40 60
13 3 18.500 0 121 140
3 4 18.500 237 174 73
11 4 18.500 237 174 73
15 4 18.500 102 161 130
3 7 18.500 237 174 73
1 8 18.500 214 40 60
13 8 18.500 0 121 140
3 9 18.500 237 174 73
7 9 18.500 102 161 130
13 9 18.500 0 121 140
15 9 18.500 102 161 130
11 10 18.500 237 174 73
1 11 18.500 214 40 60
13 11 18.500 0 121 140
13 12 18.500 0 121 140
15 12 18.500 102 161 130
9 13 18.500 214 40 60
1 14 18.500 214 40 60
7 15 18.500 102 161 130
9 15 18.500 214 40 60
5 0 19.000 0 121 140
11 0 19.000 237 174 73
15 0 19.000 102 161 130
5 1 19.000 0 121 140
7 2 19.000 102 161 130
9 2 19.000 214 40 60
5 3 19.000 0 121 140
11 3 19.000 237 174 73
15 3 19.000 102 161 130
11 4 19.000 237 174 73
3 5 19.000 237 174 73
9 5 19.000 214 40 60
5 6 19.000 0 121 140
9 6 19.000 214 40 60
15 6 19.000 102 161 130
11 7 19.000 237 174 73
1 8 19.000 214 40 60
3 8 19.000 237 174 73
15 8 19.000 102 161 130
11 9 19.000 237 174 73
15 9 19.000 102 161 130
13 10 19.000 0 121 140
3 11 19.000 237 174 73
3 12 19.000 237 174 73
9 12 19.000 214 40 60
11 12 19.000 237 174 73
5 13 19.000 0 121 140
13 13 19.000 0 121 140
15 14 19.000 102 161 130
5 15 19.000 0 121 140
7 1 19.500 102 161 130
9 1 19.500 214 40 60
5 3 19.500 0 121 140
7 3 19.500 102 161 130
13 4 19.500 0 121 140
3 5 19.500 237 174 73
5 5 19.500 0 121 140
15 5 19.500 102 161 130
11 6 19.500 237 174 73
13 6 19.500 0 121 140
3 7 19.500 237 174 73
7 7 19.500 102 161 130
15 7 19.500 102 161 130
5 9 19.500 0 121 140
11 9 19.500 237 174 73
13 9 19.500 0 121 140
7 10 19.500 102 161 130
15 10 19.500 102 161 130
3 11 19.500 237 174 73
9 11 19.500 214 40 60
1 12 19.500 214 40 60
5 12 19.500 0 121 140
1 13 19.500 214 40 60
3 14 19.500 237 174 73
15 14 19.500 102 161 130
3 0 20.000 237 174 73
7 0 20.000 102 161 130
13 0 20.000 0 121 140
3 1 20.000 237 174 73
11 1 20.000 237 174 73
15 1 20.000 102 161 130
1 2 20.000 214 40 60
1 3 20.000 214 40 60
13 3 20.000 0 121 140
15 3 20.000 102 161 130
9 4 20.000 214 40 60
1 5 20.000 214 40 60
11 5 20.000 237 174 73
13 5 20.000 0 121 140
1 6 20.000 214 40 60
7 6 20.000 102 161 130
5 7 20.000 0 121 140
1 8 20.000 214 40 60
7 9 20.000 102 161 130
15 9 20.000 102 161 130
11 11 20.000 237 174 73
13 11 20.000 0 121 140
1 12 20.000 214 40 60
5 13 20.000 0 121 140
9 13 20.000 214 40 60
11 13 20.000 237 174 73
15 13 20.000 102 161 130
13 14 20.000 0 121 140
7 15 20.000 102 161 130
3 0 20.500 237 174 73
5 0 20.500 0 121 140
1 1 20.500 214 40 60
1 2 20.500 214 40 60
3 2 20.500 237 174 73
15 3 20.500 102 161 130
7 4 20.500 102 161 130
13 5 20.500 0 121 140
5 6 20.500 0 121 140
9 6 20.500 214 40 60
15 6 20.500 102 161 130
5 7 20.500 0 121 140
3 8 20.500 237 174 73
7 8 20.500 102 161 130
15 8 20.500 102 161 130
11 9 20.500 237 174 73
1 10 20.500 214 40 60
7 10 20.500 102 161 130
11 10 20.500 237 174 73
15 11 20.500 102 161 130
3 12 20.500 237 174 73
5 13 20.500 0 121 140
7 13 20.500 102 161 130
3 14 20.500 237 174 73
9 14 20.500 214 40 60
13 14 20.500 0 121 140
3 15 20.500 237 174 73
1 0 21.000 214 40 60
3 1 21.000 237 174 73
13 1 21.000 0 121 140
5 2 21.000 0 121 140
15 2 21.000 102 161 130
15 4 21.000 102 161 130
5 5 21.000 0 121 140
15 5 21.000 102 161 130
5 6 21.000 0 121 140
11 6 21.000 237 174 73
13 6 21.000 0 121 140
3 7 21.000 237 174 73
3 8 21.000 237 174 73
9 8 21.000 214 40 60
11 8 21.000 237 174 73
7 9 21.000 102 161 130
13 9 21.000 0 121 140
9 11 21.000 214 40 60
11 11 21.000 237 174 73
5 12 21.000 0 121 140
13 12 21.000 0 121 140
13 13 21.000 0 121 140
3 14 21.000 237 174 73
11 14 21.000 237 174 73
1 15 21.000 214 40 60
11 15 21.000 237 174 73
3 1 21.500 237 174 73
7 2 21.500 102 161 130
1 3 21.500 214 40 60
3 3 21.500 237 174 73
13 3 21.500 0 121 140
15 3 21.500 102 161 130
11 4 21.500 237 174 73
15 4 21.500 102 161 130
5 5 21.500 0 121 140
9 6 21.500 214 40 60
13 6 21.500 0 121 140
15 6 21.500 102 161 130
11 7 21.500 237 174 73
13 8 21.500 0 121 140
7 9 21.500 102 161 130
9 9 21.500 214 40 60
3 10 21.500 237 174 73
5 10 21.500 0 121 140
9 10 21.500 214 40 60
13 11 21.500 0 121 140
13 12 21.500 0 121 140
7 14 21.500 102 161 130
11 14 21.500 237 174 73
3 15 21.500 237 174 73
9 15 21.500 214 40 60
13 15 21.500 0 121 140
9 0 22.000 214 40 60
15 0 22.000 102 161 130
7 1 22.000 102 161 130
3 2 22.000 237 174 73
15 2 22.000 102 161 130
5 3 22.000 0 121 140
9 3 22.000 214 40 60
1 4 22.000 214 40 60
7 5 22.000 102 161 130
9 5 22.000 214 40 60
9 6 22.000 214 40 60
7 7 22.000 102 161 130
1 8 22.000 214 40 60
7 8 22.000 102 161 130
3 9 22.000 237 174 73
15 9 22.000 102 161 130
13 10 22.000 0 121 140
3 11 22.000 237 174 73
7 11 22.000 102 161 130
11 12 22.000 237 174 73
15 12 22.000 102 161 130
11 13 22.000 237 174 73
1 14 22.000 214 40 60
3 14 22.000 237 174 73
9 14 22.000 214 40 60
15 14 22.000 102 161 130
15 15 22.000 102 161 130
7 0 22.500 102 161 130
13 1 22.500 0 121 140
15 1 22.500 102 161 130
11 3 22.500 237 174 73
3 4 22.500 237 174 73
9 4 22.500 214 40 60
13 4 22.500 0 121 140
1 6 22.500 214 40 60
5 6 22.500 0 121 140
1 7 22.500 214 40 60
9 8 22.500 214 40 60
13 9 22.500 0 121 140
1 10 22.500 214 40 60
9 10 22.500 214 40 60
3 11 22.500 237 174 73
5 11 22.500 0 121 140
5 12 22.500 0 121 140
7 12 22.500 102 161 130
3 13 22.500 237 174 73
15 13 22.500 102 161 130
1 0 23.000 214 40 60
3 0 23.000 237 174 73
7 0 23.000 102 161 130
13 0 23.000 0 121 140
9 1 23.000 214 40 60
15 1 23.000 102 161 130
5 2 23.000 0 121 140
13 2 23.000 0 121 140
3 3 23.000 237 174 73
7 3 23.000 102 161 130
9 3 23.000 214 40 60
15 3 23.000 102 161 130
7 5 23.000 102 161 130
11 5 23.000 237 174 73
15 6 23.000 102 161 130
9 7 23.000 214 40 60
15 7 23.000 102 161 130
5 8 23.000 0 121 140
3 9 23.000 237 174 73
7 9 23.000 102 161 130
13 9 23.000 0 121 140
3 10 23.000 237 174 73
5 10 23.000 0 121 140
1 11 23.000 214 40 60
7 11 23.000 102 161 130
1 12 23.000 214 40 60
3 12 23.000 237 174 73
13 12 23.000 0 121 140
3 13 23.000 237 174 73
7 14 23.000 102 161 130
11 14 23.000 237 174 73
5 0 23.500 0 121 140
9 0 23.500 214 40 60
11 0 23.500 237 174 73
1 1 23.500 214 40 60
7 2 23.500 102 161 130
9 2 23.500 214 40 60
1 4 23.500 214 40 60
5 4 23.500 0 121 140
11 4 23.500 237 174 73
13 4 23.500 0 121 140
1 5 23.500 214 40 60
7 5 23.500 102 161 130
15 6 23.500 102 161 130
5 7 23.500 0 121 140
13 7 23.500 0 121 140
1 8 23.500 214 40 60
3 8 23.500 237 174 73
5 10 23.500 0 121 140
11 10 23.500 237 174 73
3 11 23.500 237 174 73
3 12 23.500 237 174 73
15 12 23.500 102 161 130
1 13 23.500 214 40 60
11 13 23.500 237 174 73
13 13 23.500 0 121 140
7 14 23.500 102 161 130
13 14 23.500 0 121 140
5 15 23.500 0 121 140
9 15 23.500 214 40 60
1 0 24.000 214 40 60
13 0 24.000 0 121 140
3 2 24.000 237 174 73
9 2 24.000 214 40 60
7 3 24.000 102 161 130
11 3 24.000 237 174 73
5 5 24.000 0 121 140
9 5 24.000 214 40 60
11 5 24.000 237 174 73
7 6 24.000 102 161 130
1 7 24.000 214 40 60
9 7 24.000 214 40 60
13 7 24.000 0 121 140
5 8 24.000 0 121 140
1 9 24.000 214 40 60
5 9 24.000 0 121 140
3 10 24.000 237 174 73
9 10 24.000 214 40 60
9 11 24.000 214 40 60
15 11 24.000 102 161 130
7 12 24.000 102 161 130
11 12 24.000 237 174 73
1 13 24.000 214 40 60
7 13 24.000 102 161 130
15 13 24.000 102 161 130
5 14 24.000 0 121 140
15 14 24.000 102 161 130
11 15 24.000 237 174 73
13 15 24.000 0 121 140
3 0 24.500 237 174 73
9 0 24.500 214 40 60
9 1 24.500 214 40 60
1 2 24.500 214 40 60
7 2 24.500 102 161 130
13 2 24.500 0 121 140
9 3 24.500 214 40 60
3 4 24.500 237 174 73
5 4 24.500 0 121 140
11 4 24.500 237 174 73
13 5 24.500 0 121 140
1 6 24.500 214 40 60
7 6 24.500 102 161 130
13 6 24.500 0 121 140
3 7 24.500 237 174 73
15 7 24.500 102 161 130
1 9 24.500 214 40 60
9 9 24.500 214 40 60
15 9 24.500 102 161 130
9 10 24.500 214 40 60
1 11 24.500 214 40 60
3 12 24.500 237 174 73
7 12 24.500 102 161 130
5 13 24.500 0 121 140
11 13 24.500 237 174 73
13 14 24.500 0 121 140
7 15 24.500 102 161 130
15 15 24.500 102 161 130
9 0 25.000 214 40 60
5 1 25.000 0 121 140
7 1 25.000 102 161 130
13 1 25.000 0 121 140
9 2 25.000 214 40 60
5 3 25.000 0 121 140
9 5 25.000 214 40 60
13 5 25.000 0 121 140
3 6 25.000 237 174 73
11 6 25.000 237 174 73
15 6 25.000 102 161 130
5 7 25.000 0 121 140
7 7 25.000 102 161 130
11 7 25.000 237 174 73
13 8 25.000 0 121 140
9 9 25.000 214 40 60
15 9 25.000 102 161 130
7 10 25.000 102 161 130
13 10 25.000 0 121 140
3 11 25.000 237 174 73
7 11 25.000 102 161 130
9 12 25.000 214 40 60
11 12 25.000 237 174 73
15 12 25.000 102 161 130
1 13 25.000 214 40 60
9 14 25.000 214 40 60
13 14 25.000 0 121 140
3 15 25.000 237 174 73
9 15 25.000 214 40 60
7 0 25.500 102 161 130
5 2 25.500 0 121 140
11 2 25.500 237 174 73
15 2 25.500 102 161 130
5 3 25.500 0 121 140
1 4 25.500 214 40 60
7 4 25.500 102 161 130
11 5 25.500 237 174 73
15 5 25.500 102 161 130
7 6 25.500 102 161 130
11 6 25.500 237 174 73
3 7 25.500 237 174 73
9 7 25.500 214 40 60
15 7 25.500 102 161 130
3 8 25.500 237 174 73
1 10 25.500 214 40 60
3 10 25.500 237 174 73
13 10 25.500 0 121 140
9 11 25.500 214 40 60
1 12 25.500 214 40 60
11 12 25.500 237 174 73
3 13 25.500 237 174 73
11 14 25.500 237 174 73
1 15 25.500 214 40 60
13 15 25.500 0 121 140
1 0 26.000 214 40 60
15 0 26.000 102 161 130
3 1 26.000 237 174 73
9 1 26.000 214 40 60
11 1 26.000 237 174 73
7 3 26.000 102 161 130
5 4 26.000 0 121 140
5 5 26.000 0 121 140
7 5 26.000 102 161 130
3 6 26.000 237 174 73
9 6 26.000 214 40 60
13 6 26.000 0 121 140
1 8 26.000 214 40 60
11 8 26.000 237 174 73
1 9 26.000 214 40 60
7 9 26.000 102 161 130
13 9 26.000 0 121 140
5 10 26.000 0 121 140
15 10 26.000 102 161 130
11 11 26.000 237 174 73
9 12 26.000 214 40 60
3 13 26.000 237 174 73
1 14 26.000 214 40 60
1 15 26.000 214 40 60
15 15 26.000 102 161 130
9 0 26.500 214 40 60
7 1 26.500 102 161 130
13 1 26.500 0 121 140
13 2 26.500 0 121 140
3 3 26.500 237 174 73
11 3 26.500 237 174 73
1 4 26.500 214 40 60
1 5 26.500 214 40 60
5 6 26.500 0 121 140
15 6 26.500 102 161 130
1 7 26.500 214 40 60
7 7 26.500 102 161 130
11 7 26.500 237 174 73
13 7 26.500 0 121 140
1 8 26.500 214 40 60
13 8 26.500 0 121 140
15 8 26.500 102 161 130
9 9 26.500 214 40 60
11 9 26.500 237 174 73
1 10 26.500 214 40 60
7 11 26.500 102 161 130
13 11 26.500 0 121 140
15 11 26.500 102 161 130
3 12 26.500 237 174 73
5 13 26.500 0 121 140
13 13 26.500 0 121 140
7 14 26.500 102 161 130
15 14 26.500 102 161 130
5 0 27.000 0 121 140
7 0 27.000 102 161 130
1 1 27.000 214 40 60
3 2 27.000 237 174 73
1 3 27.000 214 40 60
5 3 27.000 0 121 140
7 3 27.000 102 161 130
11 3 27.000 237 174 73
13 4 27.000 0 121 140
15 4 27.000 102 161 130
3 5 27.000 237 174 73
9 5 27.000 214 40 60
1 6 27.000 214 40 60
11 6 27.000 237 174 73
13 6 27.000 0 121 140
11 8 27.000 237 174 73
15 8 27.000 102 161 130
13 10 27.000 0 121 140
15 10 27.000 102 161 130
9 11 27.000 214 40 60
11 11 27.000 237 174 73
13 12 27.000 0 121 140
1 13 27.000 214 40 60
3 14 27.000 237 174 73
9 14 27.000 214 40 60
7 15 27.000 102 161 130
1 0 27.500 214 40 60
3 0 27.500 237 174 73
7 0 27.500 102 161 130
11 1 27.500 237 174 73
15 3 27.500 102 161 130
5 4 27.500 0 121 140
9 4 27.500 214 40 60
15 4 27.500 102 161 130
13 5 27.500 0 121 140
1 6 27.500 214 40 60
5 7 27.500 0 121 140
15 7 27.500 102 161 130
13 8 27.500 0 121 140
3 10 27.500 237 174 73
9 10 27.500 214 40 60
11 10 27.500 237 174 73
9 12 27.500 214 40 60
5 13 27.500 0 121 140
15 13 27.500 102 161 130
1 15 27.500 214 40 60
3 15 27.500 237 174 73
7 15 27.500 102 161 130
5 0 28.000 0 121 140
11 0 28.000 237 174 73
1 2 28.000 214 40 60
3 3 28.000 237 174 73
5 3 28.000 0 121 140
1 4 28.000 214 40 60
7 4 28.000 102 161 130
11 4 28.000 237 174 73
3 5 28.000 237 174 73
7 5 28.000 102 161 130
15 5 28.000 102 161 130
5 6 28.000 0 121 140
15 6 28.000 102 161 130
1 7 28.000 214 40 60
13 7 28.000 0 121 140
15 8 28.000 102 161 130
9 9 28.000 214 40 60
7 10 28.000 102 161 130
7 11 28.000 102 161 130
5 12 28.000 0 121 140
9 12 28.000 214 40 60
15 12 28.000 102 161 130
5 13 28.000 0 121 140
7 13 28.000 102 161 130
13 13 28.000 0 121 140
1 14 28.000 214 40 60
3 14 28.000 237 174 73
15 15 28.000 102 161 130
1 0 28.500 214 40 60
13 1 28.500 0 121 140
3 2 28.500 237 174 73
5 2 28.500 0 121 140
9 2 28.500 214 40 60
15 2 28.500 102 161 130
13 3 28.500 0 121 140
1 4 28.500 214 40 60
13 4 28.500 0 121 140
11 5 28.500 237 174 73
11 6 28.500 237 174 73
9 7 28.500 214 40 60
13 7 28.500 0 121 140
3 8 28.500 237 174 73
11 8 28.500 237 174 73
1 9 28.500 214 40 60
5 9 28.500 0 121 140
11 9 28.500 237 174 73
1 10 28.500 214 40 60
7 10 28.500 102 161 130
15 10 28.500 102 161 130
3 11 28.500 237 174 73
11 11 28.500 237 174 73
15 11 28.500 102 161 130
13 12 28.500 0 121 140
13 13 28.500 0 121 140
5 14 28.500 0 121 140
11 14 28.500 237 174 73
15 14 28.500 102 161 130
11 15 28.500 237 174 73
3 0 29.000 237 174 73
3 1 29.000 237 174 73
5 1 29.000 0 121 140
15 1 29.000 102 161 130
7 2 29.000 102 161 130
11 2 29.000 237 174 73
1 3 29.000 214 40 60
11 4 29.000 237 174 73
1 5 29.000 214 40 60
11 5 29.000 237 174 73
3 6 29.000 237 174 73
7 6 29.000 102 161 130
13 6 29.000 0 121 140
9 7 29.000 214 40 60
7 8 29.000 102 161 130
5 10 29.000 0 121 140
9 10 29.000 214 40 60
7 11 29.000 102 161 130
13 12 29.000 0 121 140
5 13 29.000 0 121 140
1 14 29.000 214 40 60
5 14 29.000 0 121 140
11 14 29.000 237 174 73
3 15 29.000 237 174 73
13 15 29.000 0 121 140
3 0 29.500 237 174 73
1 1 29.500 214 40 60
11 1 29.500 237 174 73
1 2 29.500 214 40 60
3 2 29.500 237 174 73
13 2 29.500 0 121 140
9 3 29.500 214 40 60
5 4 29.500 0 121 140
3 5 29.500 237 174 73
9 5 29.500 214 40 60
15 5 29.500 102 161 130
1 7 29.500 214 40 60
11 7 29.500 237 174 73
1 8 29.500 214 40 60
9 8 29.500 214 40 60
11 9 29.500 237 174 73
15 9 29.500 102 161 130
5 10 29.500 0 121 140
7 10 29.500 102 161 130
13 10 29.500 0 121 140
7 11 29.500 102 161 130
9 11 29.500 214 40 60
3 12 29.500 237 174 73
11 12 29.500 237 174 73
1 13 29.500 214 40 60
7 13 29.500 102 161 130
1 14 29.500 214 40 60
3 14 29.500 237 174 73
5 15 29.500 0 121 140
15 15 29.500 102 161 130
1 0 30.000 214 40 60
13 0 30.000 0 121 140
1 1 30.000 214 40 60
7 1 30.000 102 161 130
15 1 30.000 102 161 130
9 2 30.000 214 40 60
5 3 30.000 0 121 140
3 4 30.000 237 174 73
15 4 30.000 102 161 130
3 5 30.000 237 174 73
11 5 30.000 237 174 73
5 6 30.000 0 121 140
11 6 30.000 237 174 73
1 7 30.000 214 40 60
5 8 30.000 0 121 140
9 8 30.000 214 40 60
7 9 30.000 102 161 130
7 10 30.000 102 161 130
5 11 30.000 0 121 140
15 11 30.000 102 161 130
7 12 30.000 102 161 130
1 13 30.000 214 40 60
13 13 30.000 0 121 140
15 13 30.000 102 161 130
1 15 30.000 214 40 60
7 15 30.000 102 161 130
3 0 30.500 237 174 73
13 0 30.500 0 121 140
9 1 30.500 214 40 60
11 1 30.500 237 174 73
15 1 30.500 102 161 130
1 2 30.500 214 40 60
13 2 30.500 0 121 140
3 3 30.500 237 174 73
7 3 30.500 102 161 130
15 3 30.500 102 161 130
3 4 30.500 237 174 73
15 6 30.500 102 161 130
3 7 30.500 237 174 73
5 7 30.500 0 121 140
9 7 30.500 214 40 60
11 7 30.500 237 174 73
5 8 30.500 0 121 140
1 9 30.500 214 40 60
7 9 30.500 102 161 130
13 9 30.500 0 121 140
11 10 30.500 237 174 73
15 10 30.500 102 161 130
5 11 30.500 0 121 140
11 11 30.500 237 174 73
1 12 30.500 214 40 60
9 12 30.500 214 40 60
15 12 30.500 102 161 130
3 15 30.500 237 174 73
5 0 31.000 0 121 140
9 0 31.000 214 40 60
15 0 31.000 102 161 130
1 1 31.000 214 40 60
13 1 31.000 0 121 140
3 2 31.000 237 174 73
9 2 31.000 214 40 60
15 2 31.000 102 161 130
3 3 31.000 237 174 73
1 4 31.000 214 40 60
7 5 31.000 102 161 130
3 6 31.000 237 174 73
5 6 31.000 0 121 140
7 7 31.000 102 161 130
1 8 31.000 214 40 60
7 8 31.000 102 161 130
1 10 31.000 214 40 60
9 11 31.000 214 40 60
13 11 31.000 0 121 140
15 11 31.000 102 161 130
3 12 31.000 237 174 73
5 12 31.000 0 121 140
9 12 31.000 214 40 60
7 13 31.000 102 161 130
11 13 31.000 237 174 73
1 14 31.000 214 40 60
7 14 31.000 102 161 130
15 14 31.000 102 161 130
15 15 31.000 102 161 130
11 0 31.500 237 174 73
13 0 31.500 0 121 140
7 3 31.500 102 161 130
11 3 31.500 237 174 73
13 3 31.500 0 121 140
1 4 31.500 214 40 60
9 5 31.500 214 40 60
15 5 31.500 102 161 130
5 6 31.500 0 121 140
7 6 31.500 102 161 130
9 7 31.500 214 40 60
13 7 31.500 0 121 140
11 8 31.500 237 174 73
1 9 31.500 214 40 60
13 10 31.500 0 121 140
15 11 31.500 102 161 130
13 12 31.500 0 121 140
3 13 31.500 237 174 73
13 13 31.500 0 121 140
9 14 31.500 214 40 60
11 14 31.500 237 174 73
1 15 31.500 214 40 60
13 15 31.500 0 121 140
