ply
format ascii 1.0
element vertex 564
property float x
property float y
property float z
property uchar red
property uchar green
property uchar blue
end_header
2 0 0.000 120 125 130
3 0 0.000 237 174 73
5 0 0.000 0 121 140
7 0 0.000 102 161 130
3 1 0.000 237 174 73
5 1 0.000 0 121 140
1 2 0.000 214 40 60
3 2 0.000 237 174 73
7 2 0.000 102 161 130
5 3 0.000 0 121 140
7 3 0.000 102 161 130
5 4 0.000 0 121 140
1 5 0.000 214 40 60
3 5 0.000 237 174 73
7 5 0.000 102 161 130
5 6 0.000 0 121 140
3 7 0.000 237 174 73
5 7 0.000 0 121 140
3 0 0.500 237 174 73
7 0 0.500 102 161 130
1 1 0.500 214 40 60
7 1 0.500 102 161 130
3 2 0.500 237 174 73
1 3 0.500 214 40 60
1 4 0.500 214 40 60
5 4 0.500 0 121 140
7 4 0.500 102 161 130
3 5 0.500 237 174 73
5 5 0.500 0 121 140
1 6 0.500 214 40 60
7 7 0.500 102 161 130
3 0 1.000 237 174 73
1 1 1.000 214 40 60
3 1 1.000 237 174 73
5 2 1.000 0 121 140
7 2 1.000 102 161 130
5 3 1.000 0 121 140
3 4 1.000 237 174 73
7 4 1.000 102 161 130
5 5 1.000 0 121 140
3 6 1.000 237 174 73
5 6 1.000 0 121 140
7 7 1.000 102 161 130
1 0 1.500 214 40 60
5 0 1.500 0 121 140
7 0 1.500 102 161 130
3 2 1.500 237 174 73
7 3 1.500 102 161 130
3 4 1.500 237 174 73
5 4 1.500 0 121 140
1 5 1.500 214 40 60
7 5 1.500 102 161 130
1 6 1.500 214 40 60
3 7 1.500 237 174 73
1 0 2.000 214 40 60
7 0 2.000 102 161 130
5 1 2.000 0 121 140
7 1 2.000 102 161 130
5 2 2.000 0 121 140
1 3 2.000 214 40 60
3 3 2.000 237 174 73
5 4 2.000 0 121 140
3 6 2.000 237 174 73
7 6 2.000 102 161 130
1 7 2.000 214 40 60
5 7 2.000 0 121 140
3 1 2.500 237 174 73
1 2 2.500 214 40 60
3 3 2.500 237 174 73
5 3 2.500 0 121 140
1 4 2.500 214 40 60
7 4 2.500 102 161 130
7 5 2.500 102 161 130
5 6 2.500 0 121 140
3 7 2.500 237 174 73
7 7 2.500 102 161 130
5 0 3.000 0 121 140
5 1 3.000 0 121 140
1 2 3.000 214 40 60
1 3 3.000 214 40 60
3 4 3.000 237 174 73
5 4 3.000 0 121 140
7 5 3.000 102 161 130
1 6 3.000 214 40 60
7 6 3.000 102 161 130
3 7 3.000 237 174 73
1 0 3.500 214 40 60
1 1 3.500 214 40 60
5 1 3.500 0 121 140
7 1 3.500 102 161 130
3 2 3.500 237 174 73
7 3 3.500 102 161 130
7 4 3.500 102 161 130
3 5 3.500 237 174 73
3 6 3.500 237 174 73
7 6 3.500 102 161 130
5 7 3.500 0 121 140
1 1 4.000 214 40 60
3 1 4.000 237 174 73
5 3 4.000 0 121 140
3 4 4.000 237 174 73
5 5 4.000 0 121 140
3 6 4.000 237 174 73
1 7 4.000 214 40 60
3 7 4.000 237 174 73
1 0 4.500 214 40 60
3 1 4.500 237 174 73
1 2 4.500 214 40 60
7 2 4.500 102 161 130
1 3 4.500 214 40 60
7 3 4.500 102 161 130
5 4 4.500 0 121 140
1 5 4.500 214 40 60
3 5 4.500 237 174 73
7 6 4.500 102 161 130
1 0 5.000 214 40 60
3 0 5.000 237 174 73
7 0 5.000 102 161 130
5 1 5.000 0 121 140
3 2 5.000 237 174 73
5 2 5.000 0 121 140
1 4 5.000 214 40 60
5 4 5.000 0 121 140
3 5 5.000 237 174 73
3 6 5.000 237 174 73
5 7 5.000 0 121 140
5 0 5.500 0 121 140
7 1 5.500 102 161 130
7 2 5.500 102 161 130
5 3 5.500 0 121 140
3 4 5.500 237 174 73
7 4 5.500 102 161 130
7 5 5.500 102 161 130
5 6 5.500 0 121 140
1 7 5.500 214 40 60
1 0 6.000 214 40 60
5 0 6.000 0 121 140
3 2 6.000 237 174 73
5 3 6.000 0 121 140
1 5 6.000 214 40 60
3 5 6.000 237 174 73
5 6 6.000 0 121 140
7 6 6.000 102 161 130
3 7 6.000 237 174 73
5 7 6.000 0 121 140
7 0 6.500 102 161 130
5 2 6.500 0 121 140
1 3 6.500 214 40 60
3 3 6.500 237 174 73
7 3 6.500 102 161 130
5 5 6.500 0 121 140
1 6 6.500 214 40 60
3 6 6.500 237 174 73
7 6 6.500 102 161 130
3 1 7.000 237 174 73
7 1 7.000 102 161 130
7 2 7.000 102 161 130
1 4 7.000 214 40 60
1 5 7.000 214 40 60
5 5 7.000 0 121 140
3 6 7.000 237 174 73
1 7 7.000 214 40 60
7 0 7.500 102 161 130
3 1 7.500 237 174 73
1 2 7.500 214 40 60
7 2 7.500 102 161 130
7 3 7.500 102 161 130
5 4 7.500 0 121 140
1 6 7.500 214 40 60
5 6 7.500 0 121 140
3 7 7.500 237 174 73
5 7 7.500 0 121 140
7 0 8.000 102 161 130
1 1 8.000 214 40 60
7 1 8.000 102 161 130
1 3 8.000 214 40 60
3 3 8.000 237 174 73
5 4 8.000 0 121 140
7 4 8.000 102 161 130
5 5 8.000 0 121 140
7 7 8.000 102 161 130
3 0 8.500 237 174 73
5 0 8.500 0 121 140
1 1 8.500 214 40 60
7 1 8.500 102 161 130
5 2 8.500 0 121 140
5 3 8.500 0 121 140
3 4 8.500 237 174 73
1 5 8.500 214 40 60
7 7 8.500 102 161 130
1 0 9.000 214 40 60
3 1 9.000 237 174 73
3 2 9.000 237 174 73
5 3 9.000 0 121 140
3 4 9.000 237 174 73
1 5 9.000 214 40 60
1 6 9.000 214 40 60
5 7 9.000 0 121 140
1 0 9.500 214 40 60
7 0 9.500 102 161 130
5 1 9.500 0 121 140
7 1 9.500 102 161 130
5 2 9.500 0 121 140
1 4 9.500 214 40 60
3 5 9.500 237 174 73
5 7 9.500 0 121 140
7 7 9.500 102 161 130
3 0 10.000 237 174 73
1 1 10.000 214 40 60
3 1 10.000 237 174 73
1 2 10.000 214 40 60
5 2 10.000 0 121 140
7 2 10.000 102 161 130
3 3 10.000 237 174 73
7 4 10.000 102 161 130
1 5 10.000 214 40 60
7 5 10.000 102 161 130
1 2 10.500 214 40 60
7 2 10.500 102 161 130
5 3 10.500 0 121 140
5 4 10.500 0 121 140
7 6 10.500 102 161 130
1 0 11.000 214 40 60
7 1 11.000 102 161 130
3 2 11.000 237 174 73
5 2 11.000 0 121 140
1 3 11.000 214 40 60
7 3 11.000 102 161 130
7 4 11.000 102 161 130
3 5 11.000 237 174 73
5 5 11.000 0 121 140
3 6 11.000 237 174 73
7 7 11.000 102 161 130
1 1 11.500 214 40 60
3 1 11.500 237 174 73
7 1 11.500 102 161 130
1 2 11.500 214 40 60
5 2 11.500 0 121 140
3 3 11.500 237 174 73
7 4 11.500 102 161 130
3 6 11.500 237 174 73
3 7 11.500 237 174 73
7 0 12.000 102 161 130
5 1 12.000 0 121 140
1 2 12.000 214 40 60
7 2 12.000 102 161 130
7 3 12.000 102 161 130
3 4 12.000 237 174 73
3 5 12.000 237 174 73
7 5 12.000 102 161 130
5 7 12.000 0 121 140
1 0 12.500 214 40 60
7 0 12.500 102 161 130
1 1 12.500 214 40 60
5 1 12.500 0 121 140
3 2 12.500 237 174 73
5 2 12.500 0 121 140
3 3 12.500 237 174 73
5 4 12.500 0 121 140
1 7 12.500 214 40 60
7 7 12.500 102 161 130
3 0 13.000 237 174 73
5 0 13.000 0 121 140
5 3 13.000 0 121 140
1 4 13.000 214 40 60
3 4 13.000 237 174 73
5 5 13.000 0 121 140
1 7 13.000 214 40 60
3 7 13.000 237 174 73
5 0 13.500 0 121 140
5 1 13.500 0 121 140
3 2 13.500 237 174 73
1 3 13.500 214 40 60
7 3 13.500 102 161 130
1 6 13.500 214 40 60
7 6 13.500 102 161 130
3 7 13.500 237 174 73
5 7 13.500 0 121 140
1 1 14.000 214 40 60
3 2 14.000 237 174 73
7 3 14.000 102 161 130
7 4 14.000 102 161 130
7 6 14.000 102 161 130
5 0 14.500 0 121 140
3 1 14.500 237 174 73
7 1 14.500 102 161 130
1 2 14.500 214 40 60
5 2 14.500 0 121 140
7 2 14.500 102 161 130
1 4 14.500 214 40 60
5 5 14.500 0 121 140
3 6 14.500 237 174 73
1 7 14.500 214 40 60
3 1 15.000 237 174 73
5 1 15.000 0 121 140
5 3 15.000 0 121 140
7 3 15.000 102 161 130
5 6 15.000 0 121 140
3 7 15.000 237 174 73
3 0 15.500 237 174 73
1 1 15.500 214 40 60
5 1 15.500 0 121 140
7 1 15.500 102 161 130
3 2 15.500 237 174 73
3 3 15.500 237 174 73
1 4 15.500 214 40 60
3 5 15.500 237 174 73
5 5 15.500 0 121 140
7 6 15.500 102 161 130
5 0 16.000 0 121 140
7 1 16.000 102 161 130
5 2 16.000 0 121 140
1 4 16.000 214 40 60
3 4 16.000 237 174 73
7 4 16.000 102 161 130
1 5 16.000 214 40 60
3 6 16.000 237 174 73
7 7 16.000 102 161 130
1 0 16.500 214 40 60
1 2 16.500 214 40 60
3 2 16.500 237 174 73
1 3 16.500 214 40 60
5 3 16.500 0 121 140
7 3 16.500 102 161 130
1 5 16.500 214 40 60
1 6 16.500 214 40 60
3 0 17.000 237 174 73
3 3 17.000 237 174 73
7 3 17.000 102 161 130
5 4 17.000 0 121 140
5 5 17.000 0 121 140
5 7 17.000 0 121 140
7 7 17.000 102 161 130
3 0 17.500 237 174 73
3 1 17.500 237 174 73
3 3 17.500 237 174 73
5 3 17.500 0 121 140
1 4 17.500 214 40 60
1 5 17.500 214 40 60
7 5 17.500 102 161 130
5 6 17.500 0 121 140
1 7 17.500 214 40 60
5 0 18.000 0 121 140
7 0 18.000 102 161 130
5 3 18.000 0 121 140
3 4 18.000 237 174 73
5 4 18.000 0 121 140
3 5 18.000 237 174 73
7 5 18.000 102 161 130
5 6 18.000 0 121 140
3 0 18.500 237 174 73
1 1 18.500 214 40 60
5 1 18.500 0 121 140
7 1 18.500 102 161 130
5 2 18.500 0 121 140
1 3 18.500 214 40 60
7 3 18.500 102 161 130
3 5 18.500 237 174 73
1 6 18.500 214 40 60
7 6 18.500 102 161 130
5 0 19.000 0 121 140
1 1 19.000 214 40 60
7 1 19.000 102 161 130
3 3 19.000 237 174 73
3 4 19.000 237 174 73
1 5 19.000 214 40 60
5 5 19.000 0 121 140
7 0 19.500 102 161 130
1 3 19.500 214 40 60
3 4 19.500 237 174 73
3 5 19.500 237 174 73
7 5 19.500 102 161 130
5 6 19.500 0 121 140
7 6 19.500 102 161 130
5 7 19.500 0 121 140
3 2 20.000 237 174 73
7 3 20.000 102 161 130
1 4 20.000 214 40 60
1 6 20.000 214 40 60
1 7 20.000 214 40 60
5 7 20.000 0 121 140
1 1 20.500 214 40 60
7 2 20.500 102 161 130
1 4 20.500 214 40 60
3 4 20.500 237 174 73
7 4 20.500 102 161 130
7 5 20.500 102 161 130
5 6 20.500 0 121 140
3 7 20.500 237 174 73
7 7 20.500 102 161 130
1 0 21.000 214 40 60
5 0 21.000 0 121 140
3 1 21.000 237 174 73
3 2 21.000 237 174 73
7 2 21.000 102 161 130
1 3 21.000 214 40 60
7 3 21.000 102 161 130
1 5 21.000 214 40 60
3 5 21.000 237 174 73
5 6 21.000 0 121 140
5 7 21.000 0 121 140
1 0 21.500 214 40 60
7 1 21.500 102 161 130
1 3 21.500 214 40 60
5 4 21.500 0 121 140
7 4 21.500 102 161 130
5 5 21.500 0 121 140
1 6 21.500 214 40 60
3 6 21.500 237 174 73
3 0 22.000 237 174 73
1 2 22.000 214 40 60
5 2 22.000 0 121 140
3 3 22.000 237 174 73
3 4 22.000 237 174 73
1 5 22.000 214 40 60
5 5 22.000 0 121 140
7 7 22.000 102 161 130
7 0 22.500 102 161 130
1 2 22.500 214 40 60
7 2 22.500 102 161 130
5 3 22.500 0 121 140
5 4 22.500 0 121 140
7 5 22.500 102 161 130
3 7 22.500 237 174 73
1 1 23.000 214 40 60
5 1 23.000 0 121 140
3 2 23.000 237 174 73
1 3 23.000 214 40 60
3 3 23.000 237 174 73
7 6 23.000 102 161 130
1 7 23.000 214 40 60
3 0 23.500 237 174 73
3 1 23.500 237 174 73
7 1 23.500 102 161 130
5 3 23.500 0 121 140
1 4 23.500 214 40 60
1 5 23.500 214 40 60
5 6 23.500 0 121 140
3 7 23.500 237 174 73
7 0 24.000 102 161 130
3 1 24.000 237 174 73
1 2 24.000 214 40 60
5 4 24.000 0 121 140
7 5 24.000 102 161 130
1 6 24.000 214 40 60
1 0 24.500 214 40 60
3 3 24.500 237 174 73
7 3 24.500 102 161 130
1 4 24.500 214 40 60
5 5 24.500 0 121 140
3 6 24.500 237 174 73
7 6 24.500 102 161 130
3 0 25.000 237 174 73
1 1 25.000 214 40 60
1 2 25.000 214 40 60
5 2 25.000 0 121 140
5 3 25.000 0 121 140
3 6 25.000 237 174 73
5 6 25.000 0 121 140
1 7 25.000 214 40 60
3 7 25.000 237 174 73
7 0 25.500 102 161 130
3 4 25.500 237 174 73
5 4 25.500 0 121 140
3 5 25.500 237 174 73
1 6 25.500 214 40 60
7 6 25.500 102 161 130
3 7 25.500 237 174 73
1 0 26.000 214 40 60
3 0 26.000 237 174 73
7 1 26.000 102 161 130
3 2 26.000 237 174 73
7 3 26.000 102 161 130
1 4 26.000 214 40 60
3 5 26.000 237 174 73
5 5 26.000 0 121 140
5 7 26.000 0 121 140
7 7 26.000 102 161 130
7 1 26.500 102 161 130
5 2 26.500 0 121 140
1 5 26.500 214 40 60
1 7 26.500 214 40 60
1 0 27.000 214 40 60
5 0 27.000 0 121 140
7 0 27.000 102 161 130
3 1 27.000 237 174 73
5 1 27.000 0 121 140
3 4 27.000 237 174 73
3 5 27.000 237 174 73
7 6 27.000 102 161 130
5 7 27.000 0 121 140
7 0 27.500 102 161 130
1 1 27.500 214 40 60
5 1 27.500 0 121 140
3 2 27.500 237 174 73
5 2 27.500 0 121 140
3 3 27.500 237 174 73
5 4 27.500 0 121 140
7 4 27.500 102 161 130
3 6 27.500 237 174 73
5 7 27.500 0 121 140
7 7 27.500 102 161 130
1 1 28.000 214 40 60
7 2 28.000 102 161 130
5 3 28.000 0 121 140
1 4 28.000 214 40 60
7 4 28.000 102 161 130
7 5 28.000 102 161 130
5 6 28.000 0 121 140
3 7 28.000 237 174 73
3 1 28.500 237 174 73
7 2 28.500 102 161 130
1 3 28.500 214 40 60
5 3 28.500 0 121 140
3 5 28.500 237 174 73
1 6 28.500 214 40 60
5 6 28.500 0 121 140
5 7 28.500 0 121 140
7 0 29.000 102 161 130
7 1 29.000 102 161 130
5 2 29.000 0 121 140
3 3 29.000 237 174 73
1 6 29.000 214 40 60
7 6 29.000 102 161 130
1 7 29.000 214 40 60
3 0 29.500 237 174 73
1 2 29.500 214 40 60
5 2 29.500 0 121 140
3 3 29.500 237 174 73
5 5 29.500 0 121 140
7 5 29.500 102 161 130
1 7 29.500 214 40 60
7 0 30.000 102 161 130
3 1 30.000 237 174 73
5 1 30.000 0 121 140
7 2 30.000 102 161 130
5 4 30.000 0 121 140
1 5 30.000 214 40 60
1 6 30.000 214 40 60
3 0 30.500 237 174 73
7 0 30.500 102 161 130
5 1 30.500 0 121 140
7 1 30.500 102 161 130
3 2 30.500 237 174 73
1 3 30.500 214 40 60
3 3 30.500 237 174 73
7 4 30.500 102 161 130
3 5 30.500 237 174 73
7 7 30.500 102 161 130
5 2 31.000 0 121 140
1 4 31.000 214 40 60
3 4 31.000 237 174 73
7 4 31.000 102 161 130
5 5 31.000 0 121 140
3 6 31.000 237 174 73
5 6 31.000 0 121 140
3 7 31.000 237 174 73
1 2 31.500 214 40 60
3 2 31.500 237 174 73
1 3 31.500 214 40 60
1 5 31.500 214 40 60
7 5 31.500 102 161 130
3 7 31.500 237 174 73
5 7 31.500 0 121 140
