<svg xmlns="http://www.w3.org/2000/svg" width="560" height="600" viewBox="0 0 560 600" font-family="system-ui,Arial"><rect width="560" height="600" fill="white"/><text x="280.0" y="34" text-anchor="middle" font-size="16" font-weight="600" fill="#222">Dyadic refinement: every 2^k wheel is the last one at 2&#215; resolution</text><circle cx="280.0" cy="245.0" r="2.5" fill="#c9ccd1" stroke="#fff" stroke-width="0.7"/>
<circle cx="280.0" cy="355.0" r="5" fill="#00798c" stroke="#fff" stroke-width="0.7"/>
<circle cx="280.0" cy="300" r="55" fill="none" stroke="#eee"/>
<text x="302.3" y="247.5" font-size="11" fill="#666">b=2: 1/2 = 50%</text>
<circle cx="280.0" cy="197.0" r="2.5" fill="#c9ccd1" stroke="#fff" stroke-width="0.7"/>
<circle cx="383.0" cy="300.0" r="5" fill="#00798c" stroke="#fff" stroke-width="0.7"/>
<circle cx="280.0" cy="403.0" r="2.5" fill="#c9ccd1" stroke="#fff" stroke-width="0.7"/>
<circle cx="177.0" cy="300.0" r="5" fill="#00798c" stroke="#fff" stroke-width="0.7"/>
<circle cx="280.0" cy="300" r="103" fill="none" stroke="#eee"/>
<text x="316.4" y="201.6" font-size="11" fill="#666">b=4: 2/4 = 50%</text>
<circle cx="280.0" cy="149.0" r="2.5" fill="#c9ccd1" stroke="#fff" stroke-width="0.7"/>
<circle cx="386.8" cy="193.2" r="5" fill="#d1495b" stroke="#fff" stroke-width="0.7"/>
<circle cx="431.0" cy="300.0" r="2.5" fill="#c9ccd1" stroke="#fff" stroke-width="0.7"/>
<circle cx="386.8" cy="406.8" r="5" fill="#edae49" stroke="#fff" stroke-width="0.7"/>
<circle cx="280.0" cy="451.0" r="2.5" fill="#c9ccd1" stroke="#fff" stroke-width="0.7"/>
<circle cx="173.2" cy="406.8" r="5" fill="#00798c" stroke="#fff" stroke-width="0.7"/>
<circle cx="129.0" cy="300.0" r="2.5" fill="#c9ccd1" stroke="#fff" stroke-width="0.7"/>
<circle cx="173.2" cy="193.2" r="5" fill="#66a182" stroke="#fff" stroke-width="0.7"/>
<circle cx="280.0" cy="300" r="151" fill="none" stroke="#eee"/>
<text x="330.6" y="155.7" font-size="11" fill="#666">b=8: 4/8 = 50%</text>
<circle cx="280.0" cy="101.0" r="2.5" fill="#c9ccd1" stroke="#fff" stroke-width="0.7"/>
<circle cx="356.2" cy="116.1" r="5" fill="#d1495b" stroke="#fff" stroke-width="0.7"/>
<circle cx="420.7" cy="159.3" r="2.5" fill="#c9ccd1" stroke="#fff" stroke-width="0.7"/>
<circle cx="463.9" cy="223.8" r="5" fill="#edae49" stroke="#fff" stroke-width="0.7"/>
<circle cx="479.0" cy="300.0" r="2.5" fill="#c9ccd1" stroke="#fff" stroke-width="0.7"/>
<circle cx="463.9" cy="376.2" r="5" fill="#00798c" stroke="#fff" stroke-width="0.7"/>
<circle cx="420.7" cy="440.7" r="2.5" fill="#c9ccd1" stroke="#fff" stroke-width="0.7"/>
<circle cx="356.2" cy="483.9" r="5" fill="#66a182" stroke="#fff" stroke-width="0.7"/>
<circle cx="280.0" cy="499.0" r="2.5" fill="#c9ccd1" stroke="#fff" stroke-width="0.7"/>
<circle cx="203.8" cy="483.9" r="5" fill="#d1495b" stroke="#fff" stroke-width="0.7"/>
<circle cx="139.3" cy="440.7" r="2.5" fill="#c9ccd1" stroke="#fff" stroke-width="0.7"/>
<circle cx="96.1" cy="376.2" r="5" fill="#edae49" stroke="#fff" stroke-width="0.7"/>
<circle cx="81.0" cy="300.0" r="2.5" fill="#c9ccd1" stroke="#fff" stroke-width="0.7"/>
<circle cx="96.1" cy="223.8" r="5" fill="#00798c" stroke="#fff" stroke-width="0.7"/>
<circle cx="139.3" cy="159.3" r="2.5" fill="#c9ccd1" stroke="#fff" stroke-width="0.7"/>
<circle cx="203.8" cy="116.1" r="5" fill="#66a182" stroke="#fff" stroke-width="0.7"/>
<circle cx="280.0" cy="300" r="199" fill="none" stroke="#eee"/>
<text x="344.8" y="109.9" font-size="11" fill="#666">b=16: 8/16 = 50%</text>
<circle cx="280.0" cy="53.0" r="2.5" fill="#c9ccd1" stroke="#fff" stroke-width="0.7"/>
<circle cx="328.2" cy="57.7" r="5" fill="#d1495b" stroke="#fff" stroke-width="0.7"/>
<circle cx="374.5" cy="71.8" r="2.5" fill="#c9ccd1" stroke="#fff" stroke-width="0.7"/>
<circle cx="417.2" cy="94.6" r="5" fill="#edae49" stroke="#fff" stroke-width="0.7"/>
<circle cx="454.7" cy="125.3" r="2.5" fill="#c9ccd1" stroke="#fff" stroke-width="0.7"/>
<circle cx="485.4" cy="162.8" r="5" fill="#00798c" stroke="#fff" stroke-width="0.7"/>
<circle cx="508.2" cy="205.5" r="2.5" fill="#c9ccd1" stroke="#fff" stroke-width="0.7"/>
<circle cx="522.3" cy="251.8" r="5" fill="#66a182" stroke="#fff" stroke-width="0.7"/>
<circle cx="527.0" cy="300.0" r="2.5" fill="#c9ccd1" stroke="#fff" stroke-width="0.7"/>
<circle cx="522.3" cy="348.2" r="5" fill="#d1495b" stroke="#fff" stroke-width="0.7"/>
<circle cx="508.2" cy="394.5" r="2.5" fill="#c9ccd1" stroke="#fff" stroke-width="0.7"/>
<circle cx="485.4" cy="437.2" r="5" fill="#edae49" stroke="#fff" stroke-width="0.7"/>
<circle cx="454.7" cy="474.7" r="2.5" fill="#c9ccd1" stroke="#fff" stroke-width="0.7"/>
<circle cx="417.2" cy="505.4" r="5" fill="#00798c" stroke="#fff" stroke-width="0.7"/>
<circle cx="374.5" cy="528.2" r="2.5" fill="#c9ccd1" stroke="#fff" stroke-width="0.7"/>
<circle cx="328.2" cy="542.3" r="5" fill="#66a182" stroke="#fff" stroke-width="0.7"/>
<circle cx="280.0" cy="547.0" r="2.5" fill="#c9ccd1" stroke="#fff" stroke-width="0.7"/>
<circle cx="231.8" cy="542.3" r="5" fill="#d1495b" stroke="#fff" stroke-width="0.7"/>
<circle cx="185.5" cy="528.2" r="2.5" fill="#c9ccd1" stroke="#fff" stroke-width="0.7"/>
<circle cx="142.8" cy="505.4" r="5" fill="#edae49" stroke="#fff" stroke-width="0.7"/>
<circle cx="105.3" cy="474.7" r="2.5" fill="#c9ccd1" stroke="#fff" stroke-width="0.7"/>
<circle cx="74.6" cy="437.2" r="5" fill="#00798c" stroke="#fff" stroke-width="0.7"/>
<circle cx="51.8" cy="394.5" r="2.5" fill="#c9ccd1" stroke="#fff" stroke-width="0.7"/>
<circle cx="37.7" cy="348.2" r="5" fill="#66a182" stroke="#fff" stroke-width="0.7"/>
<circle cx="33.0" cy="300.0" r="2.5" fill="#c9ccd1" stroke="#fff" stroke-width="0.7"/>
<circle cx="37.7" cy="251.8" r="5" fill="#d1495b" stroke="#fff" stroke-width="0.7"/>
<circle cx="51.8" cy="205.5" r="2.5" fill="#c9ccd1" stroke="#fff" stroke-width="0.7"/>
<circle cx="74.6" cy="162.8" r="5" fill="#edae49" stroke="#fff" stroke-width="0.7"/>
<circle cx="105.3" cy="125.3" r="2.5" fill="#c9ccd1" stroke="#fff" stroke-width="0.7"/>
<circle cx="142.8" cy="94.6" r="5" fill="#00798c" stroke="#fff" stroke-width="0.7"/>
<circle cx="185.5" cy="71.8" r="2.5" fill="#c9ccd1" stroke="#fff" stroke-width="0.7"/>
<circle cx="231.8" cy="57.7" r="5" fill="#66a182" stroke="#fff" stroke-width="0.7"/>
<circle cx="280.0" cy="300" r="247" fill="none" stroke="#eee"/>
<text x="359.0" y="64.0" font-size="11" fill="#666">b=32: 16/32 = 50%</text><text x="280.0" y="576" text-anchor="middle" font-size="12" fill="#444">Filled = prime corridor (odd spoke). Going out one ring doubles the spokes but the corridor density stays pinned at 50%.</text></svg>